<svg xmlns="http://www.w3.org/2000/svg" width="140" height="21" viewBox="0 0 140 21">
  <metadata><?xpacket begin="﻿" id="W5M0MpCehiHzreSzNTczkc9d"?>
<x:xmpmeta xmlns:x="adobe:ns:meta/" x:xmptk="Adobe XMP Core 5.6-c138 79.159824, 2016/09/14-01:09:01        ">
   <rdf:RDF xmlns:rdf="http://www.w3.org/1999/02/22-rdf-syntax-ns#">
      <rdf:Description rdf:about=""/>
   </rdf:RDF>
</x:xmpmeta>
                                                                                                    
                                                                                                    
                                                                                                    
                                                                                                    
                                                                                                    
                                                                                                    
                                                                                                    
                                                                                                    
                                                                                                    
                                                                                                    
                                                                                                    
                                                                                                    
                                                                                                    
                                                                                                    
                                                                                                    
                                                                                                    
                                                                                                    
                                                                                                    
                                                                                                    
                                                                                                    
                           
<?xpacket end="w"?></metadata>
<defs>
    <style>
      .cls-1 {
        fill: #c8c8c8;
        fill-rule: evenodd;
      }
    </style>
  </defs>
  <path id="Разработка_сайта" data-name="Разработка сайта" class="cls-1" d="M610.976,8133.01a7.262,7.262,0,0,0,2.342-.37,5.615,5.615,0,0,0,1.947-1.08,5.058,5.058,0,0,0,1.362-1.8,6.348,6.348,0,0,0,.007-4.86,5.317,5.317,0,0,0-1.332-1.82,5.7,5.7,0,0,0-1.9-1.08,7.026,7.026,0,0,0-2.3-.38,7.421,7.421,0,0,0-2.329.37,5.977,5.977,0,0,0-1.936,1.08,5.154,5.154,0,0,0-1.362,1.82,5.793,5.793,0,0,0-.486,2.43,5.89,5.89,0,0,0,.474,2.41,5.144,5.144,0,0,0,1.325,1.82,5.545,5.545,0,0,0,1.9,1.08,6.972,6.972,0,0,0,2.293.38h0Zm-4.351-5.68a5.475,5.475,0,0,1,.37-2.07,4.465,4.465,0,0,1,1.023-1.54,4.067,4.067,0,0,1,1.386-.89,4.267,4.267,0,0,1,1.609-.31,4.881,4.881,0,0,1,1.658.29,4.091,4.091,0,0,1,2.434,2.41,5.561,5.561,0,0,1,.37,2.1,5.448,5.448,0,0,1-.364,2.05,4.181,4.181,0,0,1-1.017,1.53,4.265,4.265,0,0,1-1.4.91,4.455,4.455,0,0,1-1.608.3,4.912,4.912,0,0,1-1.67-.29,4.019,4.019,0,0,1-1.4-.88,4.2,4.2,0,0,1-1.023-1.52,5.472,5.472,0,0,1-.37-2.09h0Zm13.817,0.86c0,1.29-.02,2.38-0.061,3.25l-0.062,1.21h1.836l-0.074-1.21c-0.041-.87-0.061-1.96-0.061-3.25v-9.97c0-.68.008-1.42,0.025-2.21q0.036-1.71.11-2.49l-1.836.15,0.062,1c0.041,0.82.061,2.04,0.061,3.65v9.87Zm10.908,4.82a7.258,7.258,0,0,0,2.342-.37,5.61,5.61,0,0,0,1.948-1.08,5.081,5.081,0,0,0,1.362-1.8,6.342,6.342,0,0,0,.006-4.86,5.314,5.314,0,0,0-1.331-1.82,5.707,5.707,0,0,0-1.9-1.08,7.02,7.02,0,0,0-2.3-.38,7.428,7.428,0,0,0-2.33.37,5.962,5.962,0,0,0-1.935,1.08,5.13,5.13,0,0,0-1.362,1.82,5.778,5.778,0,0,0-.487,2.43,5.89,5.89,0,0,0,.474,2.41,5.156,5.156,0,0,0,1.325,1.82,5.55,5.55,0,0,0,1.9,1.08,6.966,6.966,0,0,0,2.292.38h0ZM627,8127.33a5.475,5.475,0,0,1,.37-2.07,4.48,4.48,0,0,1,1.023-1.54,4.08,4.08,0,0,1,1.387-.89,4.262,4.262,0,0,1,1.608-.31,4.881,4.881,0,0,1,1.658.29,4.1,4.1,0,0,1,2.435,2.41,5.581,5.581,0,0,1,.369,2.1,5.468,5.468,0,0,1-.363,2.05,4.206,4.206,0,0,1-1.017,1.53,4.265,4.265,0,0,1-1.4.91,4.46,4.46,0,0,1-1.609.3,4.916,4.916,0,0,1-1.67-.29,4.029,4.029,0,0,1-1.4-.88,4.216,4.216,0,0,1-1.023-1.52,5.472,5.472,0,0,1-.37-2.09h0Zm25.022-.46a6.457,6.457,0,0,0-.345-2.17,4.608,4.608,0,0,0-1-1.66,4.352,4.352,0,0,0-1.614-1.05,6.049,6.049,0,0,0-2.157-.37,4.88,4.88,0,0,0-3.144,1.01,5.141,5.141,0,0,0-1.417,1.86c0-1.36,0-2.41.012-3.14v-3.13c0-.68.008-1.42,0.025-2.21q0.038-1.875.1-2.49l-1.837.15,0.025,0.27c0.024,0.4.041,0.72,0.049,0.96,0.041,1.02.061,2.64,0.061,4.87v7.96a6.732,6.732,0,0,0,.358,2.17,4.536,4.536,0,0,0,1,1.66,4.4,4.4,0,0,0,1.615,1.07,6.013,6.013,0,0,0,2.145.37,8.29,8.29,0,0,0,2.385-.34,5.432,5.432,0,0,0,1.917-1.03,5.968,5.968,0,0,0,1.824-4.76h0Zm-1.627-.03a5.6,5.6,0,0,1-1.282,3.98,4.329,4.329,0,0,1-3.008,1.28,2.769,2.769,0,0,1-.32.01,2.963,2.963,0,0,1-2.354-1.09,4.3,4.3,0,0,1-.783-1.44,5.924,5.924,0,0,1-.277-1.87v-0.08a5.9,5.9,0,0,1,.7-2.97,4.452,4.452,0,0,1,1.578-1.59,4.019,4.019,0,0,1,1.627-.55c0.09-.01.226-0.01,0.407-0.01a3.938,3.938,0,0,1,1.442.25,3.287,3.287,0,0,1,1.134.74,3.848,3.848,0,0,1,.844,1.42,5.879,5.879,0,0,1,.29,1.92h0Zm9.7,6.17a7.258,7.258,0,0,0,2.342-.37,5.61,5.61,0,0,0,1.948-1.08,5.081,5.081,0,0,0,1.362-1.8,6.342,6.342,0,0,0,.006-4.86,5.314,5.314,0,0,0-1.331-1.82,5.717,5.717,0,0,0-1.905-1.08,7.021,7.021,0,0,0-2.3-.38,7.426,7.426,0,0,0-2.329.37,5.962,5.962,0,0,0-1.935,1.08,5.13,5.13,0,0,0-1.362,1.82,5.778,5.778,0,0,0-.487,2.43,5.89,5.89,0,0,0,.474,2.41,5.156,5.156,0,0,0,1.325,1.82,5.55,5.55,0,0,0,1.9,1.08,6.966,6.966,0,0,0,2.292.38h0Zm-4.351-5.68a5.475,5.475,0,0,1,.37-2.07,4.465,4.465,0,0,1,1.023-1.54,4.071,4.071,0,0,1,1.387-.89,4.262,4.262,0,0,1,1.608-.31,4.881,4.881,0,0,1,1.658.29,4.091,4.091,0,0,1,2.434,2.41,5.561,5.561,0,0,1,.37,2.1,5.468,5.468,0,0,1-.363,2.05,4.206,4.206,0,0,1-1.017,1.53,4.276,4.276,0,0,1-1.4.91,4.46,4.46,0,0,1-1.609.3,4.916,4.916,0,0,1-1.67-.29,4.019,4.019,0,0,1-1.4-.88,4.2,4.2,0,0,1-1.023-1.52,5.472,5.472,0,0,1-.37-2.09h0Zm12.56-.26a6.6,6.6,0,0,0,1.023,3.73,4.653,4.653,0,0,0,2.958,2.05,5.935,5.935,0,0,0,1.134.13,2.329,2.329,0,0,0,.3-0.01,4.653,4.653,0,0,0,2.9-.92,3.818,3.818,0,0,0,.733-0.75,8.164,8.164,0,0,0,.586-0.92c-0.017.45-.025,0.76-0.025,0.92l-0.037.95-0.012.4h1.836c-0.033-.45-0.053-0.85-0.061-1.21-0.041-.87-0.062-1.96-0.062-3.25v-8.71q0-2.415.062-4.62l0.037-.93,0.024-.26-1.836-.15,0.024,0.27c0.025,0.4.041,0.71,0.05,0.95,0.041,0.98.061,2.48,0.061,4.52v4.97a3.869,3.869,0,0,0-.48-0.86,4.054,4.054,0,0,0-2.046-1.43,5.743,5.743,0,0,0-1.9-.29,6,6,0,0,0-1.282.12,4.609,4.609,0,0,0-2.958,1.79,5.778,5.778,0,0,0-1.023,3.51h0Zm1.689,0a6.174,6.174,0,0,1,.259-1.83,4.122,4.122,0,0,1,.752-1.45,3.508,3.508,0,0,1,1.257-.96,3.921,3.921,0,0,1,1.676-.35,4.123,4.123,0,0,1,1.6.33,3.676,3.676,0,0,1,1.676,1.37,5.324,5.324,0,0,1,.776,3.02,5.816,5.816,0,0,1-.739,3.11,3.693,3.693,0,0,1-1.6,1.43,4.148,4.148,0,0,1-.986.31,4.876,4.876,0,0,1-.862.09,3.239,3.239,0,0,1-1.56-.38,3.62,3.62,0,0,1-1.189-1.04,5.12,5.12,0,0,1-.789-1.64,7.247,7.247,0,0,1-.271-2.01h0Zm18.908,5.94a7.267,7.267,0,0,0,2.342-.37,5.615,5.615,0,0,0,1.947-1.08,5.058,5.058,0,0,0,1.362-1.8,6.342,6.342,0,0,0,.006-4.86,5.3,5.3,0,0,0-1.331-1.82,5.7,5.7,0,0,0-1.9-1.08,7.026,7.026,0,0,0-2.3-.38,7.432,7.432,0,0,0-2.33.37,5.983,5.983,0,0,0-1.935,1.08,5.154,5.154,0,0,0-1.362,1.82,5.793,5.793,0,0,0-.487,2.43,5.874,5.874,0,0,0,.475,2.41,5.144,5.144,0,0,0,1.325,1.82,5.545,5.545,0,0,0,1.9,1.08,6.968,6.968,0,0,0,2.293.38h0Zm-4.351-5.68a5.475,5.475,0,0,1,.37-2.07,4.465,4.465,0,0,1,1.023-1.54,4.067,4.067,0,0,1,1.386-.89,4.267,4.267,0,0,1,1.609-.31,4.881,4.881,0,0,1,1.658.29,4.091,4.091,0,0,1,2.434,2.41,5.561,5.561,0,0,1,.37,2.1,5.468,5.468,0,0,1-.364,2.05,4.181,4.181,0,0,1-1.017,1.53,4.265,4.265,0,0,1-1.4.91,4.459,4.459,0,0,1-1.608.3,4.912,4.912,0,0,1-1.67-.29,4.019,4.019,0,0,1-1.4-.88,4.2,4.2,0,0,1-1.023-1.52,5.472,5.472,0,0,1-.37-2.09h0Zm12.671,4.79,1.577,0.85,0.8-1.54-1.578-.85Zm10.538-9.6a5.132,5.132,0,0,1,2.9.84l0.259-1.05a5.4,5.4,0,0,0-.875-0.34,6.942,6.942,0,0,0-2.207-.35,7.561,7.561,0,0,0-2.36.37,5.965,5.965,0,0,0-1.942,1.08,5.141,5.141,0,0,0-1.343,1.82,5.84,5.84,0,0,0-.481,2.43,6.121,6.121,0,0,0,.462,2.43,4.854,4.854,0,0,0,1.3,1.8,5.536,5.536,0,0,0,1.9,1.08,7.215,7.215,0,0,0,2.361.38,4.653,4.653,0,0,0,1.195-.15,6.2,6.2,0,0,0,1.788-.7,2.079,2.079,0,0,0,.357-0.24l-0.185-.85-0.32.19a5.115,5.115,0,0,1-.654.37,4.9,4.9,0,0,1-2.021.48,5.143,5.143,0,0,1-1.713-.29,4.155,4.155,0,0,1-2.466-2.39,5.509,5.509,0,0,1-.369-2.1,5.256,5.256,0,0,1,.357-2.06,4.48,4.48,0,0,1,1.023-1.54,4.232,4.232,0,0,1,1.4-.9,4.6,4.6,0,0,1,1.633-.31h0Zm11.007,10.49a7.258,7.258,0,0,0,2.342-.37,5.61,5.61,0,0,0,1.948-1.08,5.081,5.081,0,0,0,1.362-1.8,6.342,6.342,0,0,0,.006-4.86,5.3,5.3,0,0,0-1.331-1.82,5.707,5.707,0,0,0-1.9-1.08,7.02,7.02,0,0,0-2.3-.38,7.428,7.428,0,0,0-2.33.37,5.983,5.983,0,0,0-1.935,1.08,5.13,5.13,0,0,0-1.362,1.82,5.778,5.778,0,0,0-.487,2.43,5.874,5.874,0,0,0,.475,2.41,5.144,5.144,0,0,0,1.325,1.82,5.545,5.545,0,0,0,1.9,1.08,6.966,6.966,0,0,0,2.292.38h0Zm-4.351-5.68a5.494,5.494,0,0,1,.37-2.07,4.494,4.494,0,0,1,1.023-1.54,4.08,4.08,0,0,1,1.387-.89,4.266,4.266,0,0,1,1.608-.31,4.881,4.881,0,0,1,1.658.29,4.089,4.089,0,0,1,2.435,2.41,5.581,5.581,0,0,1,.369,2.1,5.468,5.468,0,0,1-.363,2.05,4.206,4.206,0,0,1-1.017,1.53,4.265,4.265,0,0,1-1.4.91,4.46,4.46,0,0,1-1.609.3,4.916,4.916,0,0,1-1.67-.29,4.029,4.029,0,0,1-1.4-.88,4.229,4.229,0,0,1-1.023-1.52,5.491,5.491,0,0,1-.37-2.09h0Zm13.818,0.86c0,1.12-.025,2.2-0.074,3.25l-0.062,1.21h1.837c-0.033-.45-0.054-0.85-0.062-1.21-0.041-.87-0.062-1.96-0.062-3.25v-1.35a4.53,4.53,0,0,1,.3-1.45,5.1,5.1,0,0,1,.746-1.34,3.807,3.807,0,0,1,1.177-.99,3.045,3.045,0,0,1,1.461-.36,2.954,2.954,0,0,1,1.313.24,1.543,1.543,0,0,1,.708.74,3.329,3.329,0,0,1,.247,1.08c0.033,0.42.049,1.02,0.049,1.81v1.64c0,0.94,0,1.59-.012,1.96-0.017.71-.054,1.54-0.111,2.48h1.824c-0.033-.39-0.053-0.78-0.062-1.15q-0.048-1.005-.049-3.36v-1.7a3.626,3.626,0,0,1,.3-1.34,4.328,4.328,0,0,1,.764-1.21,4.147,4.147,0,0,1,1.153-.87,2.946,2.946,0,0,1,1.362-.32,3.038,3.038,0,0,1,1.325.24,1.471,1.471,0,0,1,.708.74,3.329,3.329,0,0,1,.247,1.08c0.033,0.42.049,1.02,0.049,1.81v1.64c0,0.94,0,1.59-.012,1.96-0.017.71-.054,1.54-0.111,2.48h1.824c-0.033-.39-0.053-0.78-0.061-1.15q-0.063-1.275-.062-3.36v-2.88a6.937,6.937,0,0,0-.074-1.02,3.162,3.162,0,0,0-.813-1.82,3.365,3.365,0,0,0-2.441-.8,4.585,4.585,0,0,0-2.588.8,4.819,4.819,0,0,0-.968.85,3.987,3.987,0,0,0-.647.98,3.08,3.08,0,0,0-.826-1.84,3.443,3.443,0,0,0-2.465-.79,4.362,4.362,0,0,0-1.442.25,4.672,4.672,0,0,0-1.258.66,4.778,4.778,0,0,0-.943.93,3.546,3.546,0,0,0-.585,1.07c0.016-1.12.037-1.83,0.062-2.12l0.037-.51-1.837.15,0.062,0.87c0.049,0.88.074,2.05,0.074,3.52v1.75Zm16.211-11.02a0.12,0.12,0,0,1-.133-0.1l-0.051-.46c-0.1.09-.2,0.18-0.294,0.26a2.1,2.1,0,0,1-.3.2,1.8,1.8,0,0,1-.343.12,1.7,1.7,0,0,1-.4.04,1.41,1.41,0,0,1-.356-0.05,1.088,1.088,0,0,1-.309-0.17,0.836,0.836,0,0,1-.216-0.29,1.031,1.031,0,0,1-.081-0.43,0.74,0.74,0,0,1,.13-0.42,1.008,1.008,0,0,1,.407-0.34,2.628,2.628,0,0,1,.712-0.24,6,6,0,0,1,1.044-.1v-0.38a1.219,1.219,0,0,0-.215-0.77,0.763,0.763,0,0,0-.636-0.27,1.169,1.169,0,0,0-.442.07,1.548,1.548,0,0,0-.308.16,1.9,1.9,0,0,0-.205.16,0.209,0.209,0,0,1-.134.07,0.075,0.075,0,0,1-.065-0.02,0.116,0.116,0,0,1-.043-0.04l-0.061-.11a2.119,2.119,0,0,1,.591-0.43,1.592,1.592,0,0,1,.7-0.14,1.309,1.309,0,0,1,.5.09,0.955,0.955,0,0,1,.358.26,1.246,1.246,0,0,1,.215.42,2,2,0,0,1,.072.55v2.36h-0.137Zm-0.2-1.75a6.781,6.781,0,0,0-.883.08,2.553,2.553,0,0,0-.612.17,0.985,0.985,0,0,0-.353.26,0.589,0.589,0,0,0-.113.35,0.714,0.714,0,0,0,.059.31,0.559,0.559,0,0,0,.159.22,0.641,0.641,0,0,0,.229.13,0.811,0.811,0,0,0,.27.04,1.538,1.538,0,0,0,.384-0.05,1.618,1.618,0,0,0,.324-0.12,1.661,1.661,0,0,0,.28-0.2c0.086-.07.172-0.16,0.256-0.24v-0.95Zm-4.441,1.75h-0.346v-3.36h-1.5v-0.26H741.3v0.26h-1.5v3.36Zm-3.183-2.92c0-.07,0-0.14.01-0.22-0.014.03-.03,0.06-0.047,0.09a0.608,0.608,0,0,1-.046.07c0,0.01-.039.05-0.1,0.14s-0.145.2-.247,0.33-0.218.29-.346,0.46-0.259.35-.391,0.53c-0.313.42-.667,0.9-1.064,1.43a0.114,0.114,0,0,1-.056.06,0.11,0.11,0,0,1-.074.03h-0.2v-3.62h0.346v2.92c0,0.03,0,.07,0,0.11s-0.006.07-.01,0.11c0.014-.03.03-0.06,0.047-0.09a0.608,0.608,0,0,1,.046-0.07c0-.01.036-0.05,0.1-0.14s0.146-.19.248-0.33,0.217-.29.345-0.47,0.258-.34.392-0.52c0.313-.42.667-0.9,1.064-1.43a0.2,0.2,0,0,1,.056-0.07,0.185,0.185,0,0,1,.074-0.02h0.2v3.62h-0.342v-2.92Zm-1.078-1.34a0.957,0.957,0,0,1-.673-0.21,0.734,0.734,0,0,1-.225-0.56,0.156,0.156,0,0,1,.025-0.09,0.082,0.082,0,0,1,.065-0.03h0.191a0.8,0.8,0,0,0,.144.53,0.6,0.6,0,0,0,.473.17,0.593,0.593,0,0,0,.468-0.17,0.8,0.8,0,0,0,.144-0.53h0.2a0.074,0.074,0,0,1,.063.03,0.163,0.163,0,0,1,.024.09,0.737,0.737,0,0,1-.224.56A0.946,0.946,0,0,1,735.543,8112.91Zm-3.187,4.16-0.05-.46c-0.1.09-.2,0.18-0.294,0.26a2.1,2.1,0,0,1-.3.2,1.816,1.816,0,0,1-.342.12,1.714,1.714,0,0,1-.4.04,1.411,1.411,0,0,1-.357-0.05,1.083,1.083,0,0,1-.308-0.17,0.836,0.836,0,0,1-.216-0.29,1.015,1.015,0,0,1-.082-0.43,0.748,0.748,0,0,1,.13-0.42,1.012,1.012,0,0,1,.408-0.34,2.632,2.632,0,0,1,.711-0.24,6,6,0,0,1,1.044-.1v-0.38a1.219,1.219,0,0,0-.214-0.77,0.764,0.764,0,0,0-.637-0.27,1.16,1.16,0,0,0-.441.07,1.52,1.52,0,0,0-.308.16,1.92,1.92,0,0,0-.206.16,0.207,0.207,0,0,1-.133.07,0.074,0.074,0,0,1-.065-0.02,0.109,0.109,0,0,1-.043-0.04l-0.062-.11a2.148,2.148,0,0,1,.591-0.43,1.592,1.592,0,0,1,.7-0.14,1.305,1.305,0,0,1,.5.09,0.959,0.959,0,0,1,.359.26,1.244,1.244,0,0,1,.214.42,2,2,0,0,1,.072.55v2.36h-0.137A0.12,0.12,0,0,1,732.356,8117.07Zm-0.065-1.65a6.8,6.8,0,0,0-.883.08,2.543,2.543,0,0,0-.611.17,0.967,0.967,0,0,0-.353.26,0.59,0.59,0,0,0-.114.35,0.714,0.714,0,0,0,.06.31,0.548,0.548,0,0,0,.158.22,0.649,0.649,0,0,0,.229.13,0.818,0.818,0,0,0,.27.04,1.526,1.526,0,0,0,.384-0.05,1.627,1.627,0,0,0,.325-0.12,1.653,1.653,0,0,0,.279-0.2c0.087-.07.172-0.16,0.256-0.24v-0.95Zm-5.22,1.11a1.016,1.016,0,0,0,.393.31,1.226,1.226,0,0,0,.512.11,1.106,1.106,0,0,0,.434-0.07,1.287,1.287,0,0,0,.289-0.13,0.836,0.836,0,0,0,.178-0.14,0.185,0.185,0,0,1,.108-0.06,0.081,0.081,0,0,1,.073.04l0.09,0.12a1.053,1.053,0,0,1-.209.2,1.705,1.705,0,0,1-.629.27,1.643,1.643,0,0,1-.388.04,1.428,1.428,0,0,1-.625-0.13,1.294,1.294,0,0,1-.487-0.36,1.646,1.646,0,0,1-.317-0.59,2.48,2.48,0,0,1-.114-0.78,2.519,2.519,0,0,1,.108-0.76,1.711,1.711,0,0,1,.318-0.59,1.464,1.464,0,0,1,.51-0.38,1.521,1.521,0,0,1,.69-0.14,1.7,1.7,0,0,1,.62.11,1.6,1.6,0,0,1,.472.31l-0.09.12-0.034.03a0.067,0.067,0,0,1-.045.02,0.208,0.208,0,0,1-.1-0.05,0.811,0.811,0,0,0-.165-0.11,1.18,1.18,0,0,0-.262-0.11,1.373,1.373,0,0,0-.38-0.05,1.359,1.359,0,0,0-.55.11,1.152,1.152,0,0,0-.4.32,1.488,1.488,0,0,0-.251.5,2.464,2.464,0,0,0-.085.67,2.3,2.3,0,0,0,.089.67A1.4,1.4,0,0,0,727.071,8116.53Zm-4.426.54-0.051-.46c-0.1.09-.2,0.18-0.294,0.26a2.1,2.1,0,0,1-.3.2,1.8,1.8,0,0,1-.343.12,1.7,1.7,0,0,1-.4.04,1.41,1.41,0,0,1-.356-0.05,1.075,1.075,0,0,1-.309-0.17,0.836,0.836,0,0,1-.216-0.29,1.031,1.031,0,0,1-.081-0.43,0.74,0.74,0,0,1,.13-0.42,1.008,1.008,0,0,1,.407-0.34,2.628,2.628,0,0,1,.712-0.24,6,6,0,0,1,1.044-.1v-0.38a1.219,1.219,0,0,0-.215-0.77,0.763,0.763,0,0,0-.636-0.27,1.169,1.169,0,0,0-.442.07,1.548,1.548,0,0,0-.308.16,1.9,1.9,0,0,0-.205.16,0.209,0.209,0,0,1-.134.07,0.075,0.075,0,0,1-.065-0.02,0.116,0.116,0,0,1-.043-0.04l-0.061-.11a2.119,2.119,0,0,1,.591-0.43,1.592,1.592,0,0,1,.7-0.14,1.312,1.312,0,0,1,.5.09,0.955,0.955,0,0,1,.358.26,1.246,1.246,0,0,1,.215.42,2,2,0,0,1,.072.55v2.36h-0.137A0.12,0.12,0,0,1,722.645,8117.07Zm-0.065-1.65a6.815,6.815,0,0,0-.884.08,2.557,2.557,0,0,0-.611.17,0.985,0.985,0,0,0-.353.26,0.589,0.589,0,0,0-.113.35,0.714,0.714,0,0,0,.059.31,0.559,0.559,0,0,0,.159.22,0.641,0.641,0,0,0,.229.13,0.811,0.811,0,0,0,.27.04,1.538,1.538,0,0,0,.384-0.05,1.618,1.618,0,0,0,.324-0.12,1.661,1.661,0,0,0,.28-0.2c0.086-.07.172-0.16,0.256-0.24v-0.95Zm-4.088.24,1.07,1.51h-0.241a0.305,0.305,0,0,1-.148-0.03,0.277,0.277,0,0,1-.094-0.09l-0.908-1.29a0.7,0.7,0,0,0-.251-0.23,0.711,0.711,0,0,0-.329-0.08h-0.465v1.73h-0.347v-3.63h0.347v1.66h0.414a0.578,0.578,0,0,0,.287-0.07,0.721,0.721,0,0,0,.225-0.2l0.955-1.29a0.221,0.221,0,0,1,.078-0.07,0.19,0.19,0,0,1,.1-0.03h0.263l-1.053,1.43a1.063,1.063,0,0,1-.182.19,0.632,0.632,0,0,1-.24.13,0.838,0.838,0,0,1,.292.12A0.962,0.962,0,0,1,718.492,8115.66Zm-4.207,1.51h-0.346v-3.36h-1.5v-0.26h3.346v0.26h-1.5v3.36Zm-2.859-.46a1.346,1.346,0,0,1-.513.38,1.9,1.9,0,0,1-1.381,0,1.372,1.372,0,0,1-.516-0.38,1.684,1.684,0,0,1-.32-0.58,2.522,2.522,0,0,1-.11-0.77,2.477,2.477,0,0,1,.11-0.77,1.643,1.643,0,0,1,.32-0.59,1.487,1.487,0,0,1,.516-0.38,1.9,1.9,0,0,1,1.381,0,1.458,1.458,0,0,1,.513.38,1.641,1.641,0,0,1,.319.59,2.477,2.477,0,0,1,.11.77,2.522,2.522,0,0,1-.11.77A1.682,1.682,0,0,1,711.426,8116.71Zm0-2.01a1.47,1.47,0,0,0-.24-0.5,1.013,1.013,0,0,0-.4-0.32,1.369,1.369,0,0,0-1.121,0,1.013,1.013,0,0,0-.4.32,1.492,1.492,0,0,0-.242.5,2.528,2.528,0,0,0-.081.66,2.4,2.4,0,0,0,.081.65,1.454,1.454,0,0,0,.242.51,1.083,1.083,0,0,0,.4.31,1.369,1.369,0,0,0,1.121,0,1.083,1.083,0,0,0,.4-0.31,1.435,1.435,0,0,0,.24-0.51,2.442,2.442,0,0,0,.079-0.65A2.574,2.574,0,0,0,711.423,8114.7Zm-4.33,2.03a1.36,1.36,0,0,1-.524.36,1.7,1.7,0,0,1-.69.13,1.669,1.669,0,0,1-.63-0.12,1.2,1.2,0,0,1-.52-0.38,2.144,2.144,0,0,1-.356-0.73,4.223,4.223,0,0,1-.131-1.14,4.974,4.974,0,0,1,.106-1.07,2.567,2.567,0,0,1,.332-0.84,1.778,1.778,0,0,1,.575-0.56,1.955,1.955,0,0,1,.836-0.26l1.291-.14,0.018,0.18a0.182,0.182,0,0,1-.018.11,0.116,0.116,0,0,1-.09.04l-1.176.13a1.632,1.632,0,0,0-.69.2,1.382,1.382,0,0,0-.483.43,2.066,2.066,0,0,0-.29.67,3.984,3.984,0,0,0-.108.89,1.308,1.308,0,0,1,.22-0.41,1.866,1.866,0,0,1,.335-0.3,1.489,1.489,0,0,1,.422-0.18,1.543,1.543,0,0,1,.483-0.07,1.5,1.5,0,0,1,.647.13,1.228,1.228,0,0,1,.483.36,1.565,1.565,0,0,1,.3.56,2.415,2.415,0,0,1,.1.73,2.184,2.184,0,0,1-.115.73A1.558,1.558,0,0,1,707.093,8116.73Zm0.015-1.9a1.3,1.3,0,0,0-.238-0.48,0.988,0.988,0,0,0-.393-0.31,1.437,1.437,0,0,0-1.078-.01,1.11,1.11,0,0,0-.416.27,1.136,1.136,0,0,0-.272.43,1.547,1.547,0,0,0-.1.57,2.585,2.585,0,0,0,.083.68,1.579,1.579,0,0,0,.243.53,1.152,1.152,0,0,0,.4.33,1.18,1.18,0,0,0,.543.12,1.423,1.423,0,0,0,.565-0.11,1.086,1.086,0,0,0,.41-0.3,1.316,1.316,0,0,0,.248-0.48,2.07,2.07,0,0,0,.085-0.62A2.216,2.216,0,0,0,707.108,8114.83Zm-4.47,2.24-0.051-.46c-0.1.09-.2,0.18-0.293,0.26a2.1,2.1,0,0,1-.3.2,1.8,1.8,0,0,1-.343.12,1.7,1.7,0,0,1-.4.04,1.411,1.411,0,0,1-.357-0.05,1.069,1.069,0,0,1-.308-0.17,0.826,0.826,0,0,1-.217-0.29,1.031,1.031,0,0,1-.081-0.43,0.74,0.74,0,0,1,.13-0.42,1.008,1.008,0,0,1,.407-0.34,2.64,2.64,0,0,1,.712-0.24,6,6,0,0,1,1.044-.1v-0.38a1.219,1.219,0,0,0-.215-0.77,0.763,0.763,0,0,0-.636-0.27,1.16,1.16,0,0,0-.441.07,1.53,1.53,0,0,0-.309.16,2,2,0,0,0-.2.16,0.209,0.209,0,0,1-.134.07,0.072,0.072,0,0,1-.064-0.02,0.111,0.111,0,0,1-.044-0.04l-0.061-.11a2.148,2.148,0,0,1,.591-0.43,1.592,1.592,0,0,1,.7-0.14,1.309,1.309,0,0,1,.5.09,0.959,0.959,0,0,1,.359.26,1.263,1.263,0,0,1,.214.42,2,2,0,0,1,.072.55v2.36h-0.137A0.12,0.12,0,0,1,702.638,8117.07Zm-0.065-1.65a6.8,6.8,0,0,0-.883.08,2.53,2.53,0,0,0-.611.17,0.98,0.98,0,0,0-.354.26,0.6,0.6,0,0,0-.113.35,0.729,0.729,0,0,0,.059.31,0.559,0.559,0,0,0,.159.22,0.641,0.641,0,0,0,.229.13,0.811,0.811,0,0,0,.27.04,1.526,1.526,0,0,0,.384-0.05,1.627,1.627,0,0,0,.325-0.12,1.694,1.694,0,0,0,.279-0.2c0.086-.07.172-0.16,0.256-0.24v-0.95Zm-3.672,1.25a1.345,1.345,0,0,1-.49.4,1.434,1.434,0,0,1-.669.15,1.377,1.377,0,0,1-.63-0.14,1.34,1.34,0,0,1-.462-0.39v1.76H696.3v-4.9H696.5a0.1,0.1,0,0,1,.105.09l0.032,0.56a1.9,1.9,0,0,1,.559-0.52,1.35,1.35,0,0,1,.717-0.19,1.236,1.236,0,0,1,1.029.46,2.195,2.195,0,0,1,.37,1.39,2.58,2.58,0,0,1-.1.74A1.632,1.632,0,0,1,698.9,8116.67Zm-0.243-2.52a0.991,0.991,0,0,0-.847-0.38,1.192,1.192,0,0,0-.645.18,1.949,1.949,0,0,0-.516.52v1.91a1.194,1.194,0,0,0,.454.44,1.308,1.308,0,0,0,.574.13,1.219,1.219,0,0,0,.555-0.12,1.146,1.146,0,0,0,.4-0.33,1.472,1.472,0,0,0,.242-0.51,2.505,2.505,0,0,0,.081-0.65A1.931,1.931,0,0,0,698.658,8114.15Zm-3.608,2.01a0.883,0.883,0,0,1-.1.43,1.131,1.131,0,0,1-.288.34,1.43,1.43,0,0,1-.429.21,1.8,1.8,0,0,1-.527.08,1.6,1.6,0,0,1-.382-0.04,1.292,1.292,0,0,1-.342-0.11,1.327,1.327,0,0,1-.287-0.16,1.039,1.039,0,0,1-.211-0.2l0.09-.12a0.081,0.081,0,0,1,.073-0.04,0.2,0.2,0,0,1,.113.06,0.955,0.955,0,0,0,.191.14,1.454,1.454,0,0,0,.3.13,1.128,1.128,0,0,0,.435.07,1.435,1.435,0,0,0,.429-0.06,1.071,1.071,0,0,0,.328-0.17,0.736,0.736,0,0,0,.285-0.59,0.638,0.638,0,0,0-.071-0.3,0.565,0.565,0,0,0-.209-0.24,1.044,1.044,0,0,0-.344-0.16,1.686,1.686,0,0,0-.472-0.06h-0.4v-0.24h0.4a1.8,1.8,0,0,0,.42-0.05,0.973,0.973,0,0,0,.321-0.15,0.619,0.619,0,0,0,.2-0.22,0.515,0.515,0,0,0,.072-0.27,0.565,0.565,0,0,0-.057-0.25,0.616,0.616,0,0,0-.177-0.22,1.032,1.032,0,0,0-.3-0.15,1.38,1.38,0,0,0-.431-0.06,1.587,1.587,0,0,0-.407.05,1.286,1.286,0,0,0-.281.11,0.952,0.952,0,0,0-.179.1,0.234,0.234,0,0,1-.1.05c-0.019,0-.035-0.01-0.047-0.01a0.144,0.144,0,0,1-.036-0.04l-0.079-.13a1.385,1.385,0,0,1,.474-0.29,1.905,1.905,0,0,1,.665-0.11,1.841,1.841,0,0,1,.555.08,1.127,1.127,0,0,1,.4.21,0.876,0.876,0,0,1,.236.29,0.779,0.779,0,0,1,.077.33,0.766,0.766,0,0,1-.175.49,1,1,0,0,1-.243.2,0.982,0.982,0,0,1-.368.14,1.219,1.219,0,0,1,.658.34A0.832,0.832,0,0,1,695.05,8116.16Zm-3.958.91-0.051-.46c-0.1.09-.2,0.18-0.294,0.26a2.1,2.1,0,0,1-.3.2,1.8,1.8,0,0,1-.343.12,1.7,1.7,0,0,1-.4.04,1.41,1.41,0,0,1-.356-0.05,1.075,1.075,0,0,1-.309-0.17,0.836,0.836,0,0,1-.216-0.29,1.031,1.031,0,0,1-.081-0.43,0.74,0.74,0,0,1,.13-0.42,1.008,1.008,0,0,1,.407-0.34,2.628,2.628,0,0,1,.712-0.24,5.991,5.991,0,0,1,1.044-.1v-0.38a1.219,1.219,0,0,0-.215-0.77,0.763,0.763,0,0,0-.636-0.27,1.169,1.169,0,0,0-.442.07,1.548,1.548,0,0,0-.308.16,1.9,1.9,0,0,0-.205.16,0.209,0.209,0,0,1-.134.07,0.075,0.075,0,0,1-.065-0.02,0.116,0.116,0,0,1-.043-0.04l-0.061-.11a2.119,2.119,0,0,1,.591-0.43,1.592,1.592,0,0,1,.7-0.14,1.312,1.312,0,0,1,.5.09,0.955,0.955,0,0,1,.358.26,1.246,1.246,0,0,1,.215.42,2,2,0,0,1,.072.55v2.36h-0.137A0.12,0.12,0,0,1,691.092,8117.07Zm-0.065-1.65a6.815,6.815,0,0,0-.884.08,2.557,2.557,0,0,0-.611.17,0.985,0.985,0,0,0-.353.26,0.589,0.589,0,0,0-.113.35,0.714,0.714,0,0,0,.059.31,0.559,0.559,0,0,0,.159.22,0.641,0.641,0,0,0,.229.13,0.811,0.811,0,0,0,.27.04,1.538,1.538,0,0,0,.384-0.05,1.618,1.618,0,0,0,.324-0.12,1.661,1.661,0,0,0,.28-0.2c0.086-.07.172-0.16,0.256-0.24v-0.95Zm-3.537-.76a1.683,1.683,0,0,1-.569.32,2.23,2.23,0,0,1-.754.12h-0.948v2.07h-0.371v-5.15h1.319a2.035,2.035,0,0,1,1.354.39,1.445,1.445,0,0,1,.456,1.14,1.527,1.527,0,0,1-.126.62A1.413,1.413,0,0,1,687.49,8114.66Zm-0.245-2.03a1.6,1.6,0,0,0-1.078-.32h-0.948v2.49h0.948a1.629,1.629,0,0,0,.6-0.1,1.306,1.306,0,0,0,.453-0.26,1.08,1.08,0,0,0,.285-0.4,1.192,1.192,0,0,0,.1-0.49A1.173,1.173,0,0,0,687.245,8112.63Z" transform="translate(-605 -8112)"/>
</svg>
